<?xml version="1.0" standalone="no"?><!DOCTYPE svg PUBLIC "-//W3C//DTD SVG 1.1//EN" "http://www.w3.org/Graphics/SVG/1.1/DTD/svg11.dtd"><svg t="1690646427274" class="icon" viewBox="0 0 1024 1024" version="1.1" xmlns="http://www.w3.org/2000/svg" p-id="3742" xmlns:xlink="http://www.w3.org/1999/xlink" width="200" height="200"><path d="M0 476.16h138.24v66.56H0zM81.2032 183.0912l47.0528-47.104 97.792 97.792-47.104 47.0528zM885.76 476.16H1024v66.56h-138.24zM476.16 0h66.56v138.24H476.16zM409.6 957.44h204.8V1024H409.6zM547.84 204.8c-153.6-20.48-296.96 81.92-332.8 235.52-35.84 153.6 51.2 307.2 194.56 358.4v20.48c0 35.84 30.72 66.56 66.56 66.56h66.56c35.84 0 66.56-30.72 66.56-66.56v-20.48c122.88-40.96 204.8-158.72 204.8-286.72 5.12-153.6-112.64-286.72-266.24-307.2z m117.76 307.2c0-51.2-25.6-97.28-66.56-128-30.72-25.6 0-61.44 30.72-40.96 51.2 35.84 87.04 97.28 87.04 168.96 0 40.96-51.2 40.96-51.2 0zM798.0032 226.5088l97.7408-97.7408 47.0528 47.104-97.792 97.6896z" fill="#1AA5FF" p-id="3743"></path></svg>