<?xml version="1.0" standalone="no"?><!DOCTYPE svg PUBLIC "-//W3C//DTD SVG 1.1//EN" "http://www.w3.org/Graphics/SVG/1.1/DTD/svg11.dtd"><svg t="1690525835896" class="icon" viewBox="0 0 1024 1024" version="1.1" xmlns="http://www.w3.org/2000/svg" p-id="7466" xmlns:xlink="http://www.w3.org/1999/xlink" width="200" height="200"><path d="M153.6 243.2h230.4c14.08 0 25.6-11.52 25.6-25.6s-11.52-25.6-25.6-25.6H153.6c-14.08 0-25.6 11.52-25.6 25.6s11.52 25.6 25.6 25.6zM204.8 448h-51.2c-14.08 0-25.6 11.52-25.6 25.6s11.52 25.6 25.6 25.6h51.2c14.08 0 25.6-11.52 25.6-25.6s-11.52-25.6-25.6-25.6z" fill="#12a6dd" p-id="7467"></path><path d="M1017.6 578.56c-6.4-26.88-12.8-49.92-21.76-70.4-10.24-23.04-20.48-43.52-34.56-64-15.36-21.76-30.72-39.68-44.8-55.04-14.08-14.08-32-29.44-55.04-44.8-5.12-3.84-10.24-7.68-16.64-10.24V153.6c0-84.48-69.12-153.6-153.6-153.6H153.6C69.12 0 0 69.12 0 153.6v716.8c0 84.48 69.12 153.6 153.6 153.6h499.2c29.44 0 56.32-3.84 74.24-6.4 26.88-6.4 49.92-12.8 70.4-21.76 23.04-10.24 43.52-20.48 64-34.56 21.76-15.36 39.68-30.72 55.04-44.8 14.08-14.08 29.44-32 44.8-55.04 11.52-16.64 23.04-37.12 34.56-64 8.96-20.48 16.64-43.52 21.76-70.4 5.12-21.76 6.4-44.8 6.4-74.24s-3.84-56.32-6.4-74.24z m-51.2 138.24c-5.12 23.04-11.52 43.52-19.2 60.16-10.24 23.04-19.2 40.96-29.44 53.76-14.08 20.48-26.88 35.84-39.68 47.36-12.8 12.8-28.16 25.6-47.36 39.68-16.64 11.52-34.56 21.76-55.04 29.44-16.64 7.68-37.12 14.08-58.88 19.2-21.76 3.84-43.52 6.4-64 6.4-25.6 0-46.08-1.28-64-6.4-23.04-5.12-43.52-11.52-60.16-19.2-23.04-10.24-40.96-19.2-53.76-29.44-20.48-14.08-35.84-26.88-47.36-39.68-12.8-12.8-25.6-28.16-39.68-47.36-7.68-11.52-24.32-14.08-35.84-6.4-11.52 7.68-14.08 24.32-6.4 35.84 15.36 21.76 30.72 39.68 44.8 55.04 14.08 14.08 32 29.44 55.04 44.8 6.4 3.84 12.8 8.96 19.2 12.8H153.6c-56.32 0-102.4-46.08-102.4-102.4V153.6c0-56.32 46.08-102.4 102.4-102.4h537.6c56.32 0 102.4 46.08 102.4 102.4v154.88c-19.2-7.68-40.96-15.36-67.84-20.48-51.2-8.96-94.72-8.96-148.48 0-26.88 6.4-49.92 12.8-70.4 21.76-23.04 10.24-43.52 20.48-64 34.56-21.76 15.36-39.68 30.72-55.04 44.8-14.08 14.08-29.44 32-44.8 55.04-11.52 16.64-23.04 37.12-34.56 64-8.96 20.48-16.64 43.52-21.76 71.68-5.12 25.6-6.4 49.92-6.4 72.96 0 14.08 11.52 25.6 25.6 25.6h115.2c14.08 0 25.6-11.52 25.6-25.6s-11.52-25.6-25.6-25.6H332.8c1.28-12.8 2.56-25.6 5.12-38.4 5.12-24.32 11.52-43.52 19.2-60.16 10.24-23.04 19.2-40.96 29.44-53.76 14.08-20.48 26.88-35.84 39.68-47.36 12.8-12.8 28.16-25.6 47.36-39.68 16.64-11.52 34.56-21.76 55.04-29.44 17.92-7.68 37.12-14.08 58.88-19.2 46.08-7.68 84.48-7.68 128 0 24.32 5.12 43.52 11.52 60.16 19.2 23.04 10.24 40.96 19.2 53.76 29.44 20.48 14.08 35.84 26.88 47.36 39.68 12.8 12.8 25.6 28.16 39.68 47.36 11.52 16.64 21.76 34.56 29.44 55.04 7.68 16.64 14.08 37.12 19.2 58.88 3.84 21.76 6.4 44.8 6.4 65.28 1.28 24.32 0 44.8-5.12 62.72z" fill="#12a6dd" p-id="7468"></path><path d="M768 627.2h-89.6V491.52c0-14.08-11.52-25.6-25.6-25.6s-25.6 11.52-25.6 25.6V652.8c0 14.08 11.52 25.6 25.6 25.6h115.2c14.08 0 25.6-11.52 25.6-25.6s-11.52-25.6-25.6-25.6z" fill="#12a6dd" p-id="7469"></path></svg>