<?xml version="1.0" standalone="no"?><!DOCTYPE svg PUBLIC "-//W3C//DTD SVG 1.1//EN" "http://www.w3.org/Graphics/SVG/1.1/DTD/svg11.dtd"><svg t="1690558053927" class="icon" viewBox="0 0 1024 1024" version="1.1" xmlns="http://www.w3.org/2000/svg" p-id="15339" xmlns:xlink="http://www.w3.org/1999/xlink" width="200" height="200"><path d="M465.60011 214.697704c-82.341788 107.890717-164.678157 215.770596-247.025363 323.64867-29.311278 38.416414-1.918202 93.780555 46.408921 93.780555h494.029051c48.32351 0 75.723811-55.364141 46.394472-93.780555-82.329144-107.878073-164.678157-215.756147-247.014526-323.64867-23.356183-30.600916-69.429147-30.600916-92.792555 0zM243.2007 781.05488h493.675033c19.629958 0 60.473927 5.915358 75.826765-17.04707 17.083194-25.53448-1.197521-59.758666-31.90681-59.758665H287.122461c-19.640796 0-60.475733-5.904521-75.844828 17.057906-17.075969 25.525448 1.201134 59.747828 31.923067 59.747829z" fill="#12a6dd" p-id="15340"></path></svg>