<?xml version="1.0" standalone="no"?><!DOCTYPE svg PUBLIC "-//W3C//DTD SVG 1.1//EN" "http://www.w3.org/Graphics/SVG/1.1/DTD/svg11.dtd"><svg t="1690556577514" class="icon" viewBox="0 0 1024 1024" version="1.1" xmlns="http://www.w3.org/2000/svg" p-id="12096" xmlns:xlink="http://www.w3.org/1999/xlink" width="200" height="200"><path d="M321.536 224a107.072 107.072 0 0 1 121.184-82.624l5.952 1.12 291.072 63.584a107.04 107.04 0 0 1 82.56 121.344l-1.088 5.952-104.832 467.52a107.008 107.008 0 0 1-121.184 82.72l-5.92-1.152-291.008-63.552a107.072 107.072 0 0 1-82.656-121.344l1.12-5.952L321.536 224z m-30.176 427.104l-12.16 54.336c-4.672 21.504 8 43.072 28.512 49.792l4.224 1.152 291.008 63.584a43.04 43.04 0 0 0 49.824-28.64l1.152-4.224 12.32-55.136-374.88-80.864z m174.336 54.944a30.304 30.304 0 1 1 0 60.64 30.304 30.304 0 0 1 0-60.64z m-339.584-221.44a32 32 0 0 1-7.424 44.672 88.96 88.96 0 0 0-16.768 17.344c-13.44 17.76-19.808 37.568-16.128 59.872 3.36 20.352 13.984 34.88 30.656 45.696 11.392 7.36 23.04 11.584 30.848 13.312l3.072 0.576a32 32 0 0 1-9.92 63.232 155.616 155.616 0 0 1-58.784-23.392C50.72 685.888 29.12 656.32 22.656 616.896c-6.816-41.376 4.992-78.176 28.256-108.896a149.12 149.12 0 0 1 30.528-30.784 32 32 0 0 1 44.672 7.392z m308.928-279.584a43.104 43.104 0 0 0-49.856 28.608L384 237.856 305.376 588.64l374.88 80.864L758.72 319.552a43.04 43.04 0 0 0-28.48-49.824l-4.16-1.12-291.04-63.584z m459.712 151.104a155.84 155.84 0 0 1 53.824 25.6c30.944 22.4 51.52 54.208 55.104 95.52 3.52 40.384-10.112 75.328-34.304 103.84a150.176 150.176 0 0 1-35.04 30.912 32 32 0 0 1-36.224-52.64l3.072-2.112a89.92 89.92 0 0 0 19.424-17.6c13.888-16.384 21.184-35.136 19.296-56.896-1.824-21.28-12-37.024-28.832-49.184a99.84 99.84 0 0 0-28.224-14.4l-2.816-0.736a32 32 0 1 1 14.72-62.304z" fill="#1296db" p-id="12097"></path></svg>